<svg width="32" height="33" viewBox="0 0 32 33" fill="none" xmlns="http://www.w3.org/2000/svg">
<circle cx="16" cy="16.5" r="16" fill="#E89A3C"/>
<path d="M22.005 17.3207C21.5639 16.6435 21.0711 16.1685 20.1751 15.8976C20.8264 15.5693 21.3187 15.1483 21.6512 14.6343C21.9837 14.1206 22.1502 13.4784 22.1502 12.7076C22.1502 11.9945 22.0383 11.3945 21.8145 10.9097C21.5896 10.4246 21.275 10.0356 20.8674 9.74289C20.4606 9.4505 19.9715 9.23988 19.4012 9.11132C18.8793 8.9937 18.3033 8.93261 17.6789 8.92249L17.6788 7.16656H13.8631V8.91876L10.6667 8.91885V24.2031H13.8631V25.8332H17.6791V24.2031H17.7118C18.3627 24.2031 18.8217 24.1177 19.4392 23.9463C20.0573 23.7754 20.6069 23.5107 21.088 23.1551C21.5704 22.7977 21.9538 22.3372 22.2394 21.7739C22.5239 21.2096 22.6667 20.543 22.6667 19.7724C22.667 18.8164 22.4459 17.9986 22.005 17.3207L22.005 17.3207ZM13.8631 11.5303H16.8563C17.1414 11.5303 17.4168 11.5555 17.6806 11.6056C17.946 11.6558 18.1801 11.7446 18.3842 11.8729C18.5877 12.0014 18.7494 12.1801 18.8722 12.4082C18.9945 12.6365 19.0555 12.9291 19.0555 13.286C19.0555 13.928 18.8722 14.3918 18.5056 14.677C18.1393 14.963 17.671 15.1055 17.1014 15.1055L13.863 15.1054L13.8631 11.5303ZM18.9181 21.1827C18.5304 21.486 18.0331 21.6367 17.4289 21.6367H13.8631V17.8476H17.1699C17.4722 17.8476 17.7636 17.8756 18.0439 17.928C18.3255 17.981 18.5735 18.0756 18.789 18.2115C19.0045 18.3476 19.1771 18.5367 19.3061 18.7789C19.4356 19.0198 19.5011 19.3305 19.5011 19.7086C19.5014 20.3903 19.3064 20.8807 18.9182 21.1826L18.9181 21.1827Z" fill="white"/>
</svg>
