<svg width="39" height="39" viewBox="0 0 39 39" fill="none" xmlns="http://www.w3.org/2000/svg">
<path d="M31.4199 15.0785H34.8497C34.096 12.4842 32.6991 10.1224 30.7886 8.21228C28.8781 6.30216 26.5159 4.90566 23.9214 4.1524V7.58359C25.6347 8.22377 27.1907 9.22412 28.4843 10.5171C29.7779 11.81 30.779 13.3655 31.4199 15.0785Z" fill="#001A27"/>
<path d="M15.077 7.58359V4.1524C12.4828 4.90596 10.121 6.30259 8.2108 8.21268C6.30059 10.1228 4.90387 12.4844 4.15027 15.0785H7.58409C8.22443 13.3661 9.22465 11.811 10.5172 10.518C11.8098 9.2251 13.3647 8.22445 15.077 7.58359Z" fill="#001A27"/>
<path d="M7.58409 23.9208H4.15027C4.90389 26.5149 6.3006 28.8766 8.2108 30.7869C10.121 32.6971 12.4828 34.0939 15.077 34.8476V31.4197C13.3644 30.7784 11.8092 29.7771 10.5166 28.4834C9.22401 27.1898 8.22399 25.6339 7.58409 23.9208Z" fill="#001A27"/>
<path d="M23.9214 31.4197V34.8476C26.516 34.0943 28.8782 32.6977 30.7888 30.7874C32.6993 28.8772 34.0962 26.5152 34.8497 23.9208H31.4199C30.7794 25.6344 29.7785 27.1906 28.4849 28.4843C27.1913 29.778 25.635 30.779 23.9214 31.4197Z" fill="#001A27"/>
<path d="M21.129 0H17.871V6.78654H21.129V0Z" fill="#001A27"/>
<path d="M21.129 32.2118H17.871V38.9999H21.129V32.2118Z" fill="#001A27"/>
<path d="M39 17.8708H32.213V21.1301H39V17.8708Z" fill="#001A27"/>
<path d="M6.78535 17.8708H0V21.1301H6.78535V17.8708Z" fill="#001A27"/>
<path d="M19.5 25.8819C18.6616 25.8839 17.8312 25.7197 17.0566 25.3989C16.2821 25.0781 15.5788 24.6069 14.9874 24.0127L13.8353 22.8606L11.6569 25.0389C12.9114 26.8253 14.7373 28.131 16.8335 28.7405C18.9298 29.35 21.1711 29.227 23.188 28.3917C25.205 27.5565 26.877 26.0588 27.9285 24.1458C28.9799 22.2328 29.348 20.0186 28.972 17.8683H21.129V15.5779H17.871V17.8707H13.3294C13.6156 16.7855 14.183 15.795 14.9743 14.9991C15.7655 14.2032 16.7528 13.63 17.8363 13.3375C18.9199 13.045 20.0615 13.0434 21.1458 13.3329C22.2302 13.6224 23.219 14.1928 24.0125 14.9865L25.1647 16.1354L27.3431 13.9571C26.0884 12.1711 24.2625 10.8659 22.1665 10.2567C20.0705 9.64753 17.8295 9.77067 15.8128 10.6058C13.7962 11.441 12.1244 12.9384 11.0729 14.851C10.0215 16.7637 9.65316 18.9776 10.0287 21.1276H17.871V23.4189H21.129V21.1293H25.6705C25.3094 22.4906 24.5087 23.6946 23.3929 24.554C22.277 25.4135 20.9085 25.8803 19.5 25.8819Z" fill="#2D5DE6"/>
</svg>
