<svg width="20" height="20" viewBox="0 0 20 20" fill="none" xmlns="http://www.w3.org/2000/svg">
<path d="M10.0049 0.151367C5.89256 0.151367 4.68987 0.15561 4.45609 0.175004C3.61218 0.245155 3.08704 0.378034 2.51494 0.662882C2.07404 0.881822 1.72633 1.13561 1.38316 1.49137C0.758175 2.14016 0.379399 2.93834 0.242282 3.88712C0.175617 4.34773 0.156224 4.44167 0.152285 6.7944C0.15077 7.57864 0.152285 8.61076 0.152285 9.99516C0.152285 14.1042 0.15683 15.3058 0.176526 15.5391C0.244706 16.3603 0.37349 16.877 0.646209 17.4421C1.16741 18.5239 2.16283 19.3361 3.33552 19.6391C3.74157 19.7436 4.19004 19.8012 4.76578 19.8285C5.00971 19.8391 7.496 19.8467 9.9838 19.8467C12.4716 19.8467 14.9594 19.8436 15.1973 19.8315C15.8639 19.8002 16.251 19.7482 16.6791 19.6376C17.8593 19.333 18.8366 18.533 19.3684 17.4361C19.6358 16.8846 19.7714 16.3482 19.8327 15.5699C19.8461 15.4002 19.8517 12.6945 19.8517 9.99258C19.8517 7.29016 19.8456 4.58955 19.8323 4.41985C19.7702 3.62894 19.6346 3.09712 19.3585 2.535C19.132 2.07485 18.8805 1.73122 18.5154 1.37985C17.8637 0.757428 17.0668 0.37864 16.1171 0.24167C15.657 0.175155 15.5653 0.155458 13.2108 0.151367H10.0049Z" fill="url(#paint0_radial_0_694)"/>
<path d="M10.0049 0.151367C5.89256 0.151367 4.68987 0.15561 4.45609 0.175004C3.61218 0.245155 3.08704 0.378034 2.51494 0.662882C2.07404 0.881822 1.72633 1.13561 1.38316 1.49137C0.758175 2.14016 0.379399 2.93834 0.242282 3.88712C0.175617 4.34773 0.156224 4.44167 0.152285 6.7944C0.15077 7.57864 0.152285 8.61076 0.152285 9.99516C0.152285 14.1042 0.15683 15.3058 0.176526 15.5391C0.244706 16.3603 0.37349 16.877 0.646209 17.4421C1.16741 18.5239 2.16283 19.3361 3.33552 19.6391C3.74157 19.7436 4.19004 19.8012 4.76578 19.8285C5.00971 19.8391 7.496 19.8467 9.9838 19.8467C12.4716 19.8467 14.9594 19.8436 15.1973 19.8315C15.8639 19.8002 16.251 19.7482 16.6791 19.6376C17.8593 19.333 18.8366 18.533 19.3684 17.4361C19.6358 16.8846 19.7714 16.3482 19.8327 15.5699C19.8461 15.4002 19.8517 12.6945 19.8517 9.99258C19.8517 7.29016 19.8456 4.58955 19.8323 4.41985C19.7702 3.62894 19.6346 3.09712 19.3585 2.535C19.132 2.07485 18.8805 1.73122 18.5154 1.37985C17.8637 0.757428 17.0668 0.37864 16.1171 0.24167C15.657 0.175155 15.5653 0.155458 13.2108 0.151367H10.0049Z" fill="url(#paint1_radial_0_694)"/>
<path d="M10.0003 2.72754C8.02519 2.72754 7.77732 2.73618 7.00159 2.77148C6.22737 2.80693 5.6989 2.92951 5.23649 3.10936C4.75817 3.29511 4.35243 3.5436 3.9482 3.94799C3.54366 4.35224 3.29519 4.75799 3.10883 5.23618C2.92853 5.69875 2.80581 6.22739 2.77096 7.00133C2.73626 7.77708 2.72717 8.02511 2.72717 10.0003C2.72717 11.9754 2.73596 12.2225 2.77111 12.9983C2.80672 13.7725 2.92929 14.301 3.10898 14.7634C3.29488 15.2418 3.54336 15.6475 3.94774 16.0518C4.35182 16.4563 4.75757 16.7054 5.23558 16.8912C5.69829 17.071 6.22692 17.1936 7.00098 17.2291C7.77672 17.2644 8.02444 17.273 9.99938 17.273C11.9746 17.273 12.2217 17.2644 12.9975 17.2291C13.7717 17.1936 14.3008 17.071 14.7635 16.8912C15.2416 16.7054 15.6468 16.4563 16.0509 16.0518C16.4554 15.6475 16.7039 15.2418 16.8902 14.7636C17.069 14.301 17.1917 13.7724 17.2281 12.9984C17.2629 12.2227 17.272 11.9754 17.272 10.0003C17.272 8.02511 17.2629 7.77724 17.2281 7.00148C17.1917 6.22724 17.069 5.69875 16.8902 5.23633C16.7039 4.75799 16.4554 4.35224 16.0509 3.94799C15.6463 3.54345 15.2418 3.29496 14.763 3.10936C14.2994 2.92951 13.7706 2.80693 12.9964 2.77148C12.2207 2.73618 11.9737 2.72754 9.99801 2.72754H10.0003ZM9.34788 4.03814C9.54151 4.03784 9.75757 4.03814 10.0003 4.03814C11.942 4.03814 12.1722 4.04511 12.939 4.07996C13.6481 4.11239 14.0329 4.23087 14.2892 4.33042C14.6286 4.46224 14.8706 4.61981 15.125 4.87436C15.3795 5.1289 15.5371 5.37133 15.6692 5.71072C15.7687 5.96678 15.8874 6.35163 15.9197 7.06072C15.9545 7.82739 15.9621 8.05769 15.9621 9.9986C15.9621 11.9395 15.9545 12.1698 15.9197 12.9365C15.8872 13.6456 15.7687 14.0304 15.6692 14.2865C15.5374 14.6259 15.3795 14.8675 15.125 15.1219C14.8704 15.3765 14.6288 15.5341 14.2892 15.6659C14.0332 15.7659 13.6481 15.8841 12.939 15.9165C12.1723 15.9513 11.942 15.9589 10.0003 15.9589C8.05837 15.9589 7.82823 15.9513 7.06159 15.9165C6.35252 15.8837 5.96768 15.7653 5.71117 15.6657C5.37179 15.5339 5.12937 15.3763 4.87483 15.1218C4.6203 14.8672 4.46273 14.6254 4.33061 14.2859C4.23107 14.0298 4.11243 13.645 4.08016 12.9359C4.04531 12.1692 4.03835 11.9389 4.03835 9.99678C4.03835 8.05466 4.04531 7.82557 4.08016 7.0589C4.11259 6.34981 4.23107 5.96496 4.33061 5.7086C4.46242 5.36921 4.6203 5.12678 4.87483 4.87224C5.12937 4.61769 5.37179 4.46011 5.71117 4.32799C5.96753 4.22799 6.35252 4.10981 7.06159 4.07724C7.73248 4.04693 7.99247 4.03784 9.34788 4.03633V4.03814ZM13.8823 5.24572C13.4005 5.24572 13.0096 5.63617 13.0096 6.11814C13.0096 6.59996 13.4005 6.99087 13.8823 6.99087C14.3641 6.99087 14.755 6.59996 14.755 6.11814C14.755 5.63633 14.3641 5.24542 13.8823 5.24542V5.24572ZM10.0003 6.26542C7.93777 6.26542 6.26555 7.93769 6.26555 10.0003C6.26555 12.0628 7.93777 13.7344 10.0003 13.7344C12.0628 13.7344 13.7344 12.0628 13.7344 10.0003C13.7344 7.93769 12.0628 6.26542 10.0003 6.26542ZM10.0003 7.57602C11.339 7.57602 12.4245 8.66133 12.4245 10.0003C12.4245 11.3391 11.339 12.4245 10.0003 12.4245C8.66139 12.4245 7.57612 11.3391 7.57612 10.0003C7.57612 8.66133 8.66139 7.57602 10.0003 7.57602Z" fill="white"/>
<defs>
<radialGradient id="paint0_radial_0_694" cx="0" cy="0" r="1" gradientUnits="userSpaceOnUse" gradientTransform="translate(5.38447 21.3636) rotate(-90) scale(19.5195 18.1591)">
<stop stop-color="#FFDD55"/>
<stop offset="0.1" stop-color="#FFDD55"/>
<stop offset="0.5" stop-color="#FF543E"/>
<stop offset="1" stop-color="#C837AB"/>
</radialGradient>
<radialGradient id="paint1_radial_0_694" cx="0" cy="0" r="1" gradientUnits="userSpaceOnUse" gradientTransform="translate(-3.14826 1.57018) rotate(78.678) scale(8.72538 35.9744)">
<stop stop-color="#3771C8"/>
<stop offset="0.128" stop-color="#3771C8"/>
<stop offset="1" stop-color="#6600FF" stop-opacity="0"/>
</radialGradient>
</defs>
</svg>
