<svg width="97" height="39" viewBox="0 0 97 39" fill="none" xmlns="http://www.w3.org/2000/svg">
<path d="M70.8885 19.4133C70.8885 17.114 71.402 15.0268 72.4288 13.1516C73.4557 11.2765 74.9625 9.80315 76.9493 8.73164C78.9584 7.6378 81.3693 7.09088 84.182 7.09088C86.7938 7.09088 89.0038 7.54851 90.812 8.46376C92.6202 9.37901 93.9931 10.5621 94.9307 12.0132C95.8906 13.4418 96.4486 14.9487 96.6049 16.5336H90.4772C90.3432 15.8416 90.0307 15.1719 89.5396 14.5245C89.0708 13.8548 88.3899 13.2967 87.497 12.8503C86.6041 12.4038 85.5326 12.1806 84.2825 12.1806C82.8091 12.1806 81.5256 12.5043 80.4317 13.1516C79.3379 13.7767 78.5008 14.6473 77.9203 15.7635C77.3399 16.8573 77.0497 18.0739 77.0497 19.4133C77.0497 20.7527 77.3399 21.9805 77.9203 23.0966C78.5008 24.1905 79.3379 25.0611 80.4317 25.7085C81.5256 26.3335 82.8091 26.646 84.2825 26.646C85.5326 26.646 86.6041 26.4228 87.497 25.9763C88.3899 25.5299 89.0708 24.983 89.5396 24.3356C90.0307 23.6659 90.3432 22.985 90.4772 22.293H96.6049C96.4486 23.878 95.8906 25.3959 94.9307 26.8469C93.9931 28.2756 92.6202 29.4476 90.812 30.3629C89.0038 31.2781 86.7938 31.7357 84.182 31.7357C81.3693 31.7357 78.9584 31.2 76.9493 30.1285C74.9625 29.0346 73.4557 27.5501 72.4288 25.675C71.402 23.7998 70.8885 21.7126 70.8885 19.4133Z" fill="#001A27"/>
<path d="M58.2873 16.0983C60.9214 16.2769 63.0756 16.6564 64.7498 17.2368C66.4241 17.7949 67.6853 18.632 68.5336 19.7482C69.3819 20.842 69.8061 22.2707 69.8061 24.0342C69.8061 25.4852 69.3931 26.7911 68.5671 27.9519C67.7635 29.1127 66.4799 30.0392 64.7164 30.7312C62.9528 31.4009 60.7205 31.7357 58.0194 31.7357C55.296 31.7357 53.0525 31.3339 51.2889 30.5303C49.5254 29.7266 48.2418 28.6663 47.4382 27.3492C46.6345 26.0098 46.2327 24.5253 46.2327 22.8957H52.327C52.327 24.1012 52.7399 25.0722 53.5659 25.8089C54.4142 26.5456 55.8987 26.9139 58.0194 26.9139C60.0508 26.9139 61.4906 26.6684 62.3389 26.1772C63.2095 25.6638 63.6448 25.0611 63.6448 24.3691C63.6448 23.878 63.4886 23.465 63.1761 23.1301C62.8635 22.7953 62.2943 22.5162 61.4683 22.293C60.6647 22.0698 59.515 21.9023 58.0194 21.7907C55.162 21.5452 52.9297 21.0987 51.3224 20.4513C49.7151 19.7816 48.599 18.9334 47.9739 17.9065C47.3489 16.8796 47.0364 15.6184 47.0364 14.1227C47.0364 12.0243 47.9516 10.3277 49.7821 9.033C51.6349 7.73825 54.403 7.09088 58.0864 7.09088C61.792 7.09088 64.5043 7.82755 66.2232 9.30088C67.9421 10.7519 68.8462 12.6047 68.9354 14.8594H62.9751C62.9751 12.8949 61.3232 11.9127 58.0194 11.9127C56.2559 11.9127 55.0057 12.1248 54.2691 12.5489C53.5324 12.9731 53.1641 13.4307 53.1641 13.9218C53.1641 14.3013 53.2645 14.625 53.4654 14.8928C53.6664 15.1607 54.1351 15.4063 54.8718 15.6295C55.6308 15.8304 56.7693 15.9867 58.2873 16.0983Z" fill="#001A27"/>
<path d="M31.4199 15.0785H34.8497C34.096 12.4842 32.6991 10.1224 30.7886 8.21228C28.8781 6.30216 26.5159 4.90566 23.9214 4.1524V7.58359C25.6347 8.22377 27.1907 9.22412 28.4843 10.5171C29.7779 11.81 30.779 13.3655 31.4199 15.0785Z" fill="#001A27"/>
<path d="M15.077 7.58359V4.1524C12.4828 4.90596 10.121 6.30259 8.2108 8.21268C6.30059 10.1228 4.90387 12.4844 4.15027 15.0785H7.58409C8.22443 13.3661 9.22465 11.811 10.5172 10.518C11.8098 9.2251 13.3647 8.22445 15.077 7.58359Z" fill="#001A27"/>
<path d="M7.58409 23.9208H4.15027C4.90389 26.5149 6.3006 28.8766 8.2108 30.7869C10.121 32.6971 12.4828 34.0939 15.077 34.8476V31.4197C13.3644 30.7784 11.8092 29.7771 10.5166 28.4834C9.22401 27.1898 8.22399 25.6339 7.58409 23.9208Z" fill="#001A27"/>
<path d="M23.9214 31.4197V34.8476C26.516 34.0943 28.8782 32.6977 30.7888 30.7874C32.6993 28.8772 34.0962 26.5152 34.8497 23.9208H31.4199C30.7794 25.6344 29.7785 27.1906 28.4849 28.4843C27.1913 29.778 25.635 30.779 23.9214 31.4197Z" fill="#001A27"/>
<path d="M21.129 0H17.871V6.78654H21.129V0Z" fill="#001A27"/>
<path d="M21.129 32.2118H17.871V38.9999H21.129V32.2118Z" fill="#001A27"/>
<path d="M39 17.8708H32.213V21.1301H39V17.8708Z" fill="#001A27"/>
<path d="M6.78535 17.8708H0V21.1301H6.78535V17.8708Z" fill="#001A27"/>
<path d="M19.5 25.8819C18.6616 25.8839 17.8312 25.7197 17.0566 25.3989C16.2821 25.0781 15.5788 24.6069 14.9874 24.0127L13.8353 22.8606L11.6569 25.0389C12.9114 26.8253 14.7373 28.131 16.8335 28.7405C18.9298 29.35 21.1711 29.227 23.188 28.3917C25.205 27.5565 26.877 26.0588 27.9285 24.1458C28.9799 22.2328 29.348 20.0186 28.972 17.8683H21.129V15.5779H17.871V17.8707H13.3294C13.6156 16.7855 14.183 15.795 14.9743 14.9991C15.7655 14.2032 16.7528 13.63 17.8363 13.3375C18.9199 13.045 20.0615 13.0434 21.1458 13.3329C22.2302 13.6224 23.219 14.1928 24.0125 14.9865L25.1647 16.1354L27.3431 13.9571C26.0884 12.1711 24.2625 10.8659 22.1665 10.2567C20.0705 9.64753 17.8295 9.77067 15.8128 10.6058C13.7962 11.441 12.1244 12.9384 11.0729 14.851C10.0215 16.7637 9.65316 18.9776 10.0287 21.1276H17.871V23.4189H21.129V21.1293H25.6705C25.3094 22.4906 24.5087 23.6946 23.3929 24.554C22.277 25.4135 20.9085 25.8803 19.5 25.8819Z" fill="#2D5DE6"/>
</svg>
