<svg width="27" height="27" viewBox="0 0 27 27" fill="none" xmlns="http://www.w3.org/2000/svg">
<path d="M13.5 27C20.9558 27 27 20.9558 27 13.5C27 6.04416 20.9558 0 13.5 0C6.04416 0 0 6.04416 0 13.5C0 20.9558 6.04416 27 13.5 27Z" fill="url(#paint0_linear_0_682)"/>
<path d="M9.13824 14.4869L10.7399 18.9201C10.7399 18.9201 10.9402 19.3348 11.1546 19.3348C11.369 19.3348 14.5583 16.017 14.5583 16.017L18.1048 9.16687L9.19539 13.3425L9.13824 14.4869Z" fill="#C8DAEA"/>
<path d="M11.2619 15.6238L10.9545 18.8915C10.9545 18.8915 10.8258 19.8927 11.8268 18.8915C12.8278 17.8902 13.786 17.1181 13.786 17.1181" fill="#A9C6D8"/>
<path d="M9.16717 14.645L5.8725 13.5715C5.8725 13.5715 5.47875 13.4118 5.60554 13.0495C5.63164 12.9748 5.68429 12.9113 5.84179 12.802C6.5718 12.2932 19.3537 7.69904 19.3537 7.69904C19.3537 7.69904 19.7146 7.57743 19.9275 7.65832C19.9801 7.67462 20.0275 7.70461 20.0648 7.74523C20.102 7.78585 20.1278 7.83564 20.1395 7.8895C20.1625 7.98464 20.1721 8.08252 20.1681 8.18032C20.1671 8.26492 20.1568 8.34333 20.1491 8.46629C20.0712 9.72235 17.7416 19.0968 17.7416 19.0968C17.7416 19.0968 17.6022 19.6453 17.1028 19.6641C16.9801 19.6681 16.8578 19.6473 16.7433 19.603C16.6288 19.5587 16.5244 19.4918 16.4362 19.4062C15.4563 18.5633 12.0691 16.287 11.3206 15.7863C11.3038 15.7748 11.2895 15.7598 11.279 15.7424C11.2684 15.7249 11.2616 15.7054 11.2592 15.6851C11.2488 15.6323 11.3061 15.567 11.3061 15.567C11.3061 15.567 17.2041 10.3245 17.361 9.7741C17.3731 9.73147 17.3272 9.71043 17.2656 9.7291C16.8739 9.87322 10.0831 14.1616 9.33368 14.6349C9.27973 14.6512 9.2227 14.6547 9.16717 14.645Z" fill="white"/>
<defs>
<linearGradient id="paint0_linear_0_682" x1="13.5" y1="27" x2="13.5" y2="0" gradientUnits="userSpaceOnUse">
<stop stop-color="#1D93D2"/>
<stop offset="1" stop-color="#38B0E3"/>
</linearGradient>
</defs>
</svg>
