<svg width="32" height="33" viewBox="0 0 32 33" fill="none" xmlns="http://www.w3.org/2000/svg">
<circle cx="16" cy="16.5" r="16" fill="#FF1A51"/>
<path d="M23 14.6534C22.25 13.9609 21.2125 12.9034 20.3675 12.1534L20.3175 12.1184C20.2343 12.0516 20.1405 11.9992 20.04 11.9634C18.0025 11.5834 8.52 9.8109 8.335 9.8334C8.28316 9.84066 8.23361 9.85946 8.19 9.8884L8.1425 9.9259C8.08401 9.9853 8.03959 10.0571 8.0125 10.1359L8 10.1684V10.3459V10.3734C9.0675 13.3459 13.2825 23.0834 14.1125 25.3684C14.1625 25.5234 14.2575 25.8184 14.435 25.8334H14.475C14.57 25.8334 14.975 25.2984 14.975 25.2984C14.975 25.2984 22.215 16.5184 22.9475 15.5834C23.0423 15.4682 23.126 15.3443 23.1975 15.2134C23.2157 15.111 23.2071 15.0055 23.1725 14.9074C23.1379 14.8092 23.0785 14.7217 23 14.6534ZM16.8325 15.6759L19.9225 13.1134L21.735 14.7834L16.8325 15.6759ZM15.6325 15.5084L10.3125 11.1484L18.92 12.7359L15.6325 15.5084ZM16.1125 16.6509L21.5575 15.7734L15.3325 23.2734L16.1125 16.6509ZM9.59 11.5834L15.1875 16.3334L14.3775 23.2784L9.59 11.5834Z" fill="white"/>
</svg>
