<svg width="21" height="15" viewBox="0 0 21 15" fill="none" xmlns="http://www.w3.org/2000/svg">
<path d="M20.5609 2.29569C20.3189 1.39159 19.6084 0.6811 18.7043 0.439084C17.0673 1.31434e-07 10.5 0 10.5 0C10.5 0 3.93274 1.31434e-07 2.29568 0.439084C1.39159 0.6811 0.6811 1.39159 0.439084 2.29569C1.31434e-07 3.93274 0 7.35034 0 7.35034C0 7.35034 1.31434e-07 10.768 0.439084 12.405C0.6811 13.3091 1.39159 14.0196 2.29568 14.2616C3.93274 14.7007 10.5 14.7007 10.5 14.7007C10.5 14.7007 17.0673 14.7007 18.7043 14.2616C19.6084 14.0196 20.3189 13.3091 20.5609 12.405C21 10.768 21 7.35034 21 7.35034C21 7.35034 20.9982 3.93274 20.5609 2.29569Z" fill="#FF0000"/>
<path d="M8.39801 10.5002L13.8537 7.3506L8.39801 4.20093V10.5002Z" fill="white"/>
</svg>
