<svg width="936" height="316" viewBox="0 0 936 316" fill="none" xmlns="http://www.w3.org/2000/svg">
<path d="M1 315L7.09868 274.604C7.23928 273.673 8.41696 273.349 9.01431 274.077V274.077C9.63094 274.829 10.8488 274.455 10.9376 273.487L14.5737 233.839V260.65C14.5737 261.675 14.7973 262.687 15.229 263.617L19.7224 273.295C20.2707 274.475 21.9261 274.538 22.5615 273.401V273.401C23.2292 272.208 24.9911 272.353 25.4546 273.64L25.7184 274.372C26.3917 276.242 29.1033 276.024 29.4699 274.071L32.7756 256.459C33.1113 254.67 35.5872 254.456 36.2253 256.16V256.16C36.8637 257.865 39.3409 257.649 39.6753 255.86L40.2961 252.539C40.7604 250.054 44.2957 249.988 44.8529 252.453V252.453C45.4396 255.049 49.22 254.786 49.4413 252.134L51.3598 229.135C51.5126 227.303 54.0749 227.013 54.6337 228.764V228.764C55.1593 230.412 57.5316 230.285 57.8791 228.591L59.83 219.078C60.1864 217.34 62.6087 217.184 63.1848 218.862L63.572 219.99C64.0074 221.258 65.817 221.209 66.1832 219.919V219.919C66.6171 218.391 68.8685 218.705 68.8685 220.293V233.019C68.8685 234.853 70.7894 236.054 72.4379 235.25V235.25C73.9007 234.537 75.6426 235.401 75.9597 236.997L82.1117 267.957C82.5207 270.015 85.4218 270.129 85.99 268.109L86.1002 267.716C86.6767 265.667 89.6644 265.939 89.8605 268.059V268.059C90.0788 270.418 93.5401 270.367 93.6888 268.003L96.2355 227.495C96.3534 225.618 98.8755 225.103 99.7208 226.782V226.782C100.542 228.414 102.983 227.984 103.197 226.169L108.943 177.367L109.433 173.24C109.772 170.376 113.899 170.29 114.358 173.138L114.783 175.783C115.097 177.729 117.823 177.919 118.402 176.035V176.035C118.916 174.364 121.242 174.258 121.905 175.876L124.863 183.088C125.022 183.475 125.233 183.839 125.488 184.17V184.17C128.049 187.48 133.336 186.17 134.028 182.043L139.22 151.097C139.458 149.682 141.365 149.391 142.013 150.671V150.671C142.699 152.025 144.733 151.603 144.824 150.089L145.314 141.982C145.575 137.653 151.796 137.248 152.617 141.507L152.849 142.713C152.88 142.877 152.896 143.045 152.896 143.211V143.211C152.896 145.488 155.615 146.713 157.275 145.156V145.156C158.879 143.652 161.51 144.694 161.649 146.888L162.642 162.492C162.803 165.021 166.217 165.689 167.319 163.408V163.408C168.33 161.318 171.406 161.658 171.936 163.918L175.508 179.158C176.046 181.456 178.974 182.158 180.497 180.354V180.354C182.086 178.471 185.153 179.333 185.528 181.769L191.945 223.49C192.47 226.904 197.29 227.162 198.176 223.823V223.823C199.023 220.634 203.564 220.675 204.352 223.879L205.502 228.551C205.681 229.277 206.571 229.547 207.122 229.042V229.042C207.703 228.511 208.642 228.843 208.76 229.621L210.218 239.252C210.469 240.909 212.723 241.221 213.415 239.695V239.695C214.092 238.202 216.287 238.459 216.6 240.069L218.668 250.715C218.901 251.913 220.556 252.061 220.998 250.924V250.924C221.486 249.668 223.35 250.017 223.35 251.365V263.284C223.35 265.949 226.242 267.608 228.543 266.264L228.94 266.032C231.213 264.704 234.108 266.097 234.49 268.702L234.911 271.576C235.424 275.079 240.295 275.534 241.448 272.187V272.187L255.254 225.437C255.972 223.005 259.133 222.391 260.71 224.377V224.377C262.043 226.056 264.631 225.929 265.793 224.128L267.163 222.007C269.569 218.278 275.289 219.364 276.161 223.715L276.412 224.969C277.541 230.596 285.471 230.898 287.025 225.374L288.633 219.655L288.853 218.478C290.009 212.276 297.979 210.394 301.787 215.424L302.096 215.831C302.17 215.929 302.234 216.033 302.288 216.143V216.143C303.154 217.903 305.792 217.383 305.925 215.426L307.628 190.515C307.742 188.857 309.958 188.388 310.733 189.858L312.128 192.503C312.57 193.343 313.842 193.028 313.842 192.079V192.079C313.842 191.068 315.245 190.812 315.602 191.759L320.144 203.819C321.242 206.733 325.412 206.591 326.309 203.609L329.542 192.862C329.9 191.67 331.565 191.612 332.006 192.776V192.776C332.518 194.129 334.525 193.762 334.525 192.315V185.779C334.525 183.163 338.037 182.307 339.241 184.63L342.051 190.055C342.204 190.351 342.32 190.664 342.395 190.988L350.865 227.47C351.229 229.041 353.373 229.264 354.054 227.803V227.803C354.769 226.266 357.047 226.614 357.272 228.293L361.546 260.208C361.629 260.83 361.863 261.422 362.228 261.933L362.379 262.144C364.295 264.825 368.491 263.893 369.091 260.652V260.652C369.811 256.764 375.289 256.515 376.36 260.321L377.025 262.684C377.131 263.064 377.185 263.456 377.185 263.85V269.646C377.185 275.83 378.424 281.951 380.828 287.649L384.702 296.833C384.861 297.21 385.074 297.563 385.333 297.879L388.054 301.196C389.166 302.552 391.348 302.052 391.759 300.348L392.254 298.299C392.668 296.582 395.124 296.624 395.479 298.354V298.354C395.845 300.141 398.41 300.105 398.726 298.309L399.161 295.833C399.448 294.199 401.77 294.136 402.145 295.752V295.752C402.513 297.338 404.776 297.319 405.118 295.728L410.797 269.297L417.986 239.351C418.363 237.78 418.606 236.18 418.71 234.568L422.213 180.715C422.303 179.343 423.924 178.667 424.961 179.57V179.57C425.884 180.374 427.33 179.937 427.653 178.756L430.588 168.024C431.458 164.842 435.641 164.111 437.539 166.81V166.81C437.807 167.191 438.004 167.617 438.122 168.068L439.564 173.595C440.266 176.284 444.126 176.16 444.654 173.432L445.543 168.837C445.875 167.121 448.316 167.078 448.709 168.781V168.781C449.119 170.56 451.701 170.404 451.895 168.59L453.703 151.69C453.833 150.472 455.432 150.11 456.074 151.154V151.154C456.709 152.186 458.289 151.845 458.443 150.643L458.924 146.878C459.287 144.039 463.285 143.748 464.055 146.504L464.334 147.502C465.104 150.254 469.002 150.267 469.789 147.52L471.093 142.974C472.221 139.037 477.755 138.912 479.061 142.794L479.464 143.994C481.07 148.767 488.084 147.812 488.356 142.785L489.4 123.478C489.478 122.044 491.358 121.566 492.111 122.789V122.789C492.885 124.048 494.824 123.499 494.824 122.021V101.107C494.824 99.6107 496.52 98.7439 497.733 99.6202V99.6202C498.946 100.497 500.642 99.6298 500.642 98.1333V79.8508C500.642 77.5418 503.711 76.7417 504.838 78.7569L505.976 80.7918C506.432 81.607 507.628 81.5348 507.983 80.6705V80.6705C508.424 79.5936 510.013 79.8275 510.126 80.9861L512.92 109.754C513.093 111.529 515.517 111.908 516.222 110.27V110.27C516.859 108.791 519.006 108.952 519.47 110.493V110.493C520.025 112.333 522.724 112.163 522.94 110.254L527.591 69.2433C527.765 67.7044 529.941 67.5485 530.333 69.0467V69.0467C530.696 70.4341 532.663 70.4408 533.036 69.056L534.66 63.0223C535.165 61.1461 537.754 60.9597 538.522 62.7443V62.7443C539.275 64.4928 541.798 64.36 542.363 62.542L546.617 48.8572C547.167 47.0867 549.683 47.1152 550.193 48.8978V48.8978C550.683 50.6118 553.068 50.7281 553.723 49.0699L557.272 40.0836C558.073 38.056 561.034 38.3651 561.399 40.5144L561.498 41.1004C561.835 43.0856 564.571 43.3697 565.308 41.4961V41.4961C566.041 39.6343 568.756 39.8995 569.114 41.868L569.552 44.2675C570.068 47.0981 574.072 47.2423 574.791 44.4562L578.852 28.7025L581.606 19.5614C583.119 14.5408 590.215 14.5046 591.779 19.5095V19.5095L596.95 40.2595L598.845 56.8146C599.206 59.9676 603.711 60.1693 604.352 57.0612V57.0612C605.031 53.7692 609.878 54.2639 609.878 57.6252V75.9373C609.878 76.3153 609.923 76.6918 610.014 77.0586L617.466 107.124C618.173 109.976 621.51 111.244 623.933 109.583V109.583C626.443 107.861 629.895 109.292 630.452 112.285L633.846 130.537C634.394 133.48 638.695 133.207 638.866 130.219V130.219C639.04 127.179 643.445 126.974 643.9 129.984L644.071 131.108C644.549 134.269 649.179 134.038 649.341 130.845L649.45 128.676C649.62 125.305 654.458 124.942 655.13 128.25L655.77 131.402L659.648 154.253L666.758 192.601V192.601C667.454 194.864 670.702 194.725 671.203 192.411L677.073 165.276C677.789 161.966 682.425 161.739 683.46 164.964V164.964C684.509 168.232 689.226 167.94 689.864 164.568L693.22 146.843C694.1 142.195 700.325 141.219 702.584 145.375V145.375C704.687 149.243 710.393 148.736 711.781 144.557L717.452 127.475C717.986 125.867 720.258 125.861 720.8 127.466V127.466C721.419 129.296 724.105 128.947 724.235 127.02L724.862 117.709C725.041 115.062 728.873 114.901 729.273 117.524V117.524C729.629 119.861 732.906 120.097 733.593 117.835L741.949 90.33C742.709 87.8282 745.907 87.1105 747.664 89.0477V89.0477C749.619 91.2039 753.204 90.0304 753.505 87.1355L756.845 55.0713C757.095 52.6741 760.426 52.2896 761.216 54.5668V54.5668C761.995 56.8165 765.277 56.4771 765.58 54.1155L772.091 3.3471C772.455 0.50965 776.579 0.552894 776.883 3.39735L777.298 7.27417C777.461 8.79241 779.551 9.07267 780.108 7.65084V7.65084C780.674 6.20357 782.81 6.52751 782.921 8.07771L795.707 185.218C795.835 186.994 797.982 187.81 799.257 186.566V186.566C800.534 185.32 802.684 186.14 802.808 187.92L803.747 201.479C803.961 204.564 808.379 204.865 809.009 201.837V201.837C809.62 198.905 813.858 199.059 814.254 202.028L816.625 219.8C817.05 222.981 821.353 223.655 822.821 220.801V220.801C824.216 218.087 828.279 218.588 828.886 221.578V221.578C829.594 225.064 834.593 225.012 835.228 221.513L835.944 217.571C836.532 214.331 841.016 213.929 842.17 217.013V217.013C843.376 220.233 848.106 219.608 848.434 216.185L850.036 199.474C850.353 196.167 854.632 195.065 856.507 197.808V197.808C858.186 200.265 861.961 199.692 862.836 196.848L867.936 180.268C868.883 177.189 873.327 177.456 873.898 180.627L874.14 181.97C874.586 184.448 877.931 184.931 879.059 182.68L879.481 181.838C880.482 179.842 883.452 180.285 883.825 182.487V182.487C884.272 185.12 888.088 185.022 888.399 182.369L889.047 176.838C889.45 173.399 894.326 173.095 895.154 176.457L896.906 183.576C897.45 185.789 900.554 185.902 901.258 183.735L901.999 181.456C902.429 180.133 904.293 180.111 904.754 181.423V181.423C905.248 182.828 907.283 182.671 907.556 181.207L913.899 147.1C914.27 145.108 916.909 144.634 917.949 146.372V146.372C918.97 148.077 921.549 147.662 921.983 145.723L927.579 120.712C928.458 116.782 934.038 116.722 935 120.633V120.633" stroke="#2D5DE6" stroke-width="2" stroke-linecap="round"/>
</svg>
